<svg width="312" height="128" viewBox="0 0 312 128" fill="none" xmlns="http://www.w3.org/2000/svg">
<g clip-path="url(#clip0)">
<path d="M85.091 74.5404C85.091 74.7611 84.9807 76.3058 84.76 79.1745H39.8534C40.6626 82.8523 42.575 85.7578 45.5909 87.891C48.6067 90.0242 52.3581 91.0907 56.8451 91.0907C59.9345 91.0907 62.6561 90.6494 65.0099 89.7667C67.4373 88.8105 69.6808 87.3393 71.7404 85.3533L80.8983 95.2835C75.3079 101.683 67.1431 104.883 56.4038 104.883C49.7101 104.883 43.7887 103.595 38.6397 101.021C33.4907 98.3729 29.5187 94.7318 26.7235 90.0977C23.9283 85.4636 22.5307 80.2043 22.5307 74.3197C22.5307 68.5087 23.8915 63.2862 26.6132 58.6521C29.4083 53.9444 33.1965 50.3033 37.9777 47.7288C42.8325 45.0808 48.2389 43.7568 54.1971 43.7568C60.0081 43.7568 65.2674 45.0072 69.975 47.5082C74.6827 50.0091 78.3605 53.6134 81.0086 58.3211C83.7302 62.9552 85.091 68.3616 85.091 74.5404ZM54.3074 56.7764C50.4089 56.7764 47.1356 57.8797 44.4875 60.0864C41.8395 62.2931 40.2212 65.309 39.6328 69.134H68.8717C68.2832 65.3825 66.665 62.4035 64.0169 60.1968C61.3689 57.9165 58.1324 56.7764 54.3074 56.7764ZM96.5504 22.131H113.763V104H96.5504V22.131ZM129.737 44.6395H146.95V104H129.737V44.6395ZM138.343 36.3643C135.18 36.3643 132.606 35.4448 130.62 33.6059C128.634 31.767 127.641 29.4867 127.641 26.7651C127.641 24.0435 128.634 21.7632 130.62 19.9243C132.606 18.0854 135.18 17.1659 138.343 17.1659C141.506 17.1659 144.081 18.0486 146.067 19.814C148.053 21.5793 149.046 23.786 149.046 26.4341C149.046 29.3028 148.053 31.6934 146.067 33.6059C144.081 35.4448 141.506 36.3643 138.343 36.3643ZM182.895 104.883C177.967 104.883 173.149 104.294 168.441 103.117C163.733 101.867 159.982 100.322 157.187 98.4832L162.924 86.1256C165.572 87.8174 168.772 89.215 172.523 90.3184C176.275 91.3482 179.953 91.8631 183.557 91.8631C190.839 91.8631 194.48 90.0609 194.48 86.4566C194.48 84.7648 193.487 83.5511 191.501 82.8156C189.515 82.08 186.462 81.4548 182.343 80.9399C177.488 80.2043 173.48 79.3584 170.317 78.4021C167.154 77.4459 164.395 75.7541 162.041 73.3267C159.761 70.8993 158.621 67.4421 158.621 62.9552C158.621 59.2038 159.688 55.8937 161.821 53.025C164.027 50.0827 167.19 47.8024 171.31 46.1842C175.502 44.5659 180.431 43.7568 186.095 43.7568C190.287 43.7568 194.443 44.2349 198.563 45.1911C202.755 46.0738 206.212 47.3243 208.934 48.9425L203.197 61.1898C197.974 58.2475 192.273 56.7764 186.095 56.7764C182.417 56.7764 179.658 57.2913 177.819 58.3211C175.981 59.3509 175.061 60.6749 175.061 62.2931C175.061 64.1321 176.054 65.4193 178.04 66.1549C180.026 66.8905 183.189 67.5893 187.529 68.2513C192.384 69.0604 196.356 69.9431 199.445 70.8993C202.535 71.782 205.219 73.437 207.5 75.8644C209.78 78.2918 210.92 81.6754 210.92 86.0153C210.92 89.6932 209.817 92.9664 207.61 95.8352C205.403 98.7039 202.167 100.947 197.901 102.566C193.708 104.11 188.706 104.883 182.895 104.883ZM259.826 101.131C258.135 102.382 256.038 103.338 253.537 104C251.11 104.588 248.535 104.883 245.814 104.883C238.752 104.883 233.272 103.081 229.374 99.4762C225.549 95.8719 223.636 90.5758 223.636 83.5879V59.2038H214.478V45.9635H223.636V31.5095H240.849V45.9635H255.634V59.2038H240.849V83.3672C240.849 85.8682 241.474 87.8174 242.724 89.215C244.048 90.5391 245.887 91.2011 248.241 91.2011C250.963 91.2011 253.28 90.4655 255.192 88.9944L259.826 101.131ZM277.076 104.883C274.06 104.883 271.522 103.853 269.463 101.793C267.403 99.7337 266.373 97.1592 266.373 94.0698C266.373 90.9068 267.403 88.3691 269.463 86.4566C271.522 84.4706 274.06 83.4776 277.076 83.4776C280.092 83.4776 282.629 84.4706 284.689 86.4566C286.749 88.3691 287.778 90.9068 287.778 94.0698C287.778 97.1592 286.749 99.7337 284.689 101.793C282.629 103.853 280.092 104.883 277.076 104.883Z" fill="white"/>
</g>
<defs>
<clipPath id="clip0">
<rect width="312" height="128" fill="white"/>
</clipPath>
</defs>
</svg>
